<?xml version="1.0" encoding="UTF-8" standalone="no"?>
<svg
   xmlns:dc="http://purl.org/dc/elements/1.1/"
   xmlns:cc="http://creativecommons.org/ns#"
   xmlns:rdf="http://www.w3.org/1999/02/22-rdf-syntax-ns#"
   xmlns:svg="http://www.w3.org/2000/svg"
   xmlns="http://www.w3.org/2000/svg"
   viewBox="0 0 1045.28 1002.72"
   height="1002.72"
   width="1045.28"
   xml:space="preserve"
   id="svg2"
   version="1.1"><metadata
     id="metadata8"><rdf:RDF><cc:Work
         rdf:about=""><dc:format>image/svg+xml</dc:format><dc:type
           rdf:resource="http://purl.org/dc/dcmitype/StillImage" /></cc:Work></rdf:RDF></metadata><defs
     id="defs6"><clipPath
       id="clipPath18"
       clipPathUnits="userSpaceOnUse"><path
         style="clip-rule:evenodd"
         id="path16"
         d="M 1.1682e-5,0 H 783.96001 V 752.04 H 1.1682e-5 Z" /></clipPath><clipPath
       id="clipPath26"
       clipPathUnits="userSpaceOnUse"><path
         style="clip-rule:evenodd"
         id="path24"
         d="M 1.1682e-5,2.4414e-4 H 783.17001 V 745.44024 H 1.1682e-5 Z" /></clipPath><clipPath
       id="clipPath36"
       clipPathUnits="userSpaceOnUse"><path
         id="path34"
         d="M 0,0 H 1839.36 V 1764.36 H 0 Z" /></clipPath><clipPath
       id="clipPath54"
       clipPathUnits="userSpaceOnUse"><path
         id="path52"
         d="M 0,0 H 5.211 V 7.879 H 0 Z" /></clipPath><clipPath
       id="clipPath70"
       clipPathUnits="userSpaceOnUse"><path
         id="path68"
         d="M 0,0 H 5.3929 V 7.879 H 0 Z" /></clipPath><clipPath
       id="clipPath82"
       clipPathUnits="userSpaceOnUse"><path
         id="path80"
         d="M 0,0 H 34.811 V 7.879 H 0 Z" /></clipPath></defs><g
     transform="matrix(1.3333333,0,0,-1.3333333,0,1002.72)"
     id="g10"><g
       id="g12"><g
         clip-path="url(#clipPath18)"
         id="g14" /></g><g
       id="g20"><g
         clip-path="url(#clipPath26)"
         id="g22"><g
           transform="matrix(10.877,0,0,10.433,0,-5.7564)"
           id="g28"><g
             transform="scale(0.039144,0.040808)"
             id="g30"><g
               clip-path="url(#clipPath36)"
               id="g32"><path
                 id="path38"
                 style="fill:#000000;fill-opacity:1;fill-rule:nonzero;stroke:none"
                 d="m 52.5,884.99 h 1655.71 v -5.63 H 52.5 c -1.553,0 -2.813,1.26 -2.813,2.82 0,1.55 1.26,2.81 2.813,2.81 z m 1734.37,-2.81 -78.75,22.5 v -19.69 -5.63 -19.68 z" /><path
                 id="path40"
                 style="fill:#000000;fill-opacity:1;fill-rule:nonzero;stroke:none"
                 d="M 916.87,52.488 V 1633.19 h 5.63 V 52.488 c 0,-1.553 -1.26,-2.812 -2.81,-2.812 -1.56,0 -2.82,1.259 -2.82,2.812 z m 2.82,1659.372 -22.5,-78.75 h 19.68 5.63 19.69 z" /><path
                 id="path42"
                 style="fill:none;stroke:#000000;stroke-width:7.5;stroke-linecap:round;stroke-linejoin:round;stroke-miterlimit:10;stroke-dasharray:none;stroke-opacity:1"
                 d="M 610.31,1416.55 1662.19,420.93" /><path
                 id="path44"
                 style="fill:#000000;fill-opacity:1;fill-rule:evenodd;stroke:none"
                 d="m 1365.19,1270.3 c 0,-9.94 -8.06,-18 -18,-18 -9.94,0 -18,8.06 -18,18 0,9.94 8.06,18 18,18 9.94,0 18,-8.06 18,-18 z" /><g
                 transform="matrix(1.4475,-1.507e-6,0,2.1886,1386.95,1275.89)"
                 id="g46"><g
                   transform="scale(13.817,9.1382)"
                   id="g48"><g
                     clip-path="url(#clipPath54)"
                     id="g50"><path
                       id="path56"
                       style="fill:#000000;fill-opacity:1;fill-rule:evenodd;stroke:none"
                       d="M 4.2585,2.5037 C 4.2401,2.4546 4.208,2.4301 4.1625,2.4301 3.9941,2.4399 3.8263,2.4448 3.6595,2.4448 H 3.5761 C 3.379,2.4414 3.181,2.4365 2.9823,2.4301 2.9369,2.4301 2.9124,2.4512 2.909,2.4939 v 0.0196 l 0.0101,0.0417 c 0.0135,0.0538 0.0463,0.0801 0.0985,0.0785 0.0624,-1e-4 0.118,0.0019 0.1668,0.006 0.0489,0.004 0.0961,0.0184 0.1415,0.0431 0.0169,0.008 0.0313,0.0195 0.043,0.0344 0.0067,0.0128 0.011,0.026 0.0126,0.0392 V 2.7711 L 3.3209,3.5857 H 2.1786 L 1.7768,2.8987 C 1.7549,2.8593 1.7438,2.8233 1.7438,2.7908 1.7438,2.7629 1.7523,2.7374 1.7691,2.7147 1.8062,2.6606 1.8754,2.6336 1.9763,2.6337 2.0218,2.6336 2.0462,2.614 2.0496,2.5748 2.0496,2.5649 2.0479,2.5543 2.0445,2.5429 L 2.0346,2.5037 C 2.016,2.4546 1.9832,2.4301 1.936,2.4301 1.7811,2.4365 1.6277,2.4414 1.4759,2.4448 H 1.4078 c -0.1314,0 -0.2645,-0.0049 -0.3993,-0.0147 -0.0253,0 -0.04386,0.0081 -0.05566,0.0245 -0.01013,0.0097 -0.01519,0.0212 -0.01519,0.0344 0,0.0096 0.00169,0.0194 0.00506,0.0294 L 0.95284,2.5552 C 0.96633,2.609 0.9993,2.6353 1.0514,2.6337 c 0.054,-1e-4 0.1071,0.0056 0.1592,0.0171 0.0523,0.0113 0.1012,0.0319 0.1466,0.0613 0.0456,0.0294 0.0877,0.065 0.1264,0.1067 0.0388,0.0417 0.0733,0.0888 0.1036,0.1413 l 1.7841,3.0547 c 0.0304,0.0457 0.0692,0.0678 0.1164,0.0663 h 0.048 C 3.5897,6.0809 3.6199,6.0556 3.6267,6.005 L 3.849,2.8079 C 3.8524,2.7653 3.8575,2.733 3.8642,2.7109 3.8709,2.6888 3.8828,2.6728 3.8996,2.6632 3.9232,2.6483 3.9623,2.6397 4.0171,2.6373 4.072,2.6348 4.1338,2.6336 4.2028,2.6337 4.25,2.6336 4.2736,2.614 4.2736,2.5748 4.2736,2.5649 4.272,2.5543 4.2686,2.5429 Z M 3.1996,5.3253 2.2999,3.7845 h 1.0058 z" /></g></g></g><path
                 id="path58"
                 style="fill:none;stroke:#000000;stroke-width:7.5;stroke-linecap:round;stroke-linejoin:round;stroke-miterlimit:10;stroke-dasharray:none;stroke-opacity:1"
                 d="m 1062.19,992.8 285,277.5" /><path
                 id="path60"
                 style="fill:#000000;fill-opacity:1;fill-rule:evenodd;stroke:none"
                 d="m 1080.19,992.8 c 0,-9.94 -8.06,-18 -18,-18 -9.94,0 -18,8.06 -18,18 0,9.94 8.06,18 18,18 9.94,0 18,-8.06 18,-18 z" /><g
                 transform="matrix(1.498,-7.54e-7,0,2.1886,955.76,827.76)"
                 id="g62"><g
                   transform="scale(13.351,9.1382)"
                   id="g64"><g
                     clip-path="url(#clipPath70)"
                     id="g66"><path
                       id="path72"
                       style="fill:#000000;fill-opacity:1;fill-rule:evenodd;stroke:none"
                       d="M 4.4285,5.0334 C 4.4,4.9154 4.3431,4.805 4.258,4.702 4.1729,4.5989 4.0748,4.5114 3.9636,4.4396 3.876,4.3806 3.7863,4.3339 3.6944,4.2996 3.6026,4.2652 3.5701,4.2505 3.5971,4.2556 3.5922,4.2571 3.6363,4.2361 3.7299,4.1929 3.8234,4.1495 3.9055,4.0903 3.9761,4.0151 4.0554,3.9348 4.1094,3.8383 4.1379,3.7256 4.1514,3.6698 4.1591,3.615 4.1606,3.5612 4.1606,3.4989 4.1514,3.4342 4.1329,3.3674 4.101,3.2413 4.0419,3.1209 3.9561,3.0065 3.8702,2.892 3.7673,2.7923 3.6477,2.7073 3.5213,2.6156 3.387,2.5465 3.2447,2.4999 3.1024,2.4532 2.9604,2.4301 2.8187,2.4301 H 1.0093 c -0.02533,0 -0.04389,0.0073 -0.0557,0.0221 -0.01165,0.0113 -0.01763,0.0236 -0.01763,0.0368 0,0.0096 0.00169,0.0194 0.00506,0.0294 l 0.01012,0.0368 c 0.01012,0.0538 0.04294,0.0801 0.09845,0.0785 0.0793,-1e-4 0.1535,0.0011 0.2225,0.0036 0.069,0.0024 0.1213,0.011 0.1566,0.0259 0.0303,0.0162 0.054,0.0604 0.0708,0.1325 l 0.7102,2.7652 c 0.0101,0.0359 0.015,0.0636 0.015,0.0834 0,0.0195 -0.0041,0.031 -0.0125,0.0344 C 2.1885,5.6932 2.1427,5.7021 2.0744,5.7055 2.0062,5.7087 1.9317,5.7104 1.8507,5.7106 1.8256,5.7104 1.807,5.7185 1.7952,5.7351 1.7851,5.7448 1.78,5.757 1.78,5.7719 c 0,0.0097 0.0026,0.0187 0.0075,0.027 l 0.0077,0.0368 c 0.0051,0.0227 0.0173,0.0411 0.0366,0.0551 0.0194,0.0138 0.0401,0.0208 0.062,0.021 H 3.5693 C 3.7075,5.9116 3.838,5.8911 3.961,5.8503 4.084,5.8093 4.1859,5.7448 4.2667,5.6566 4.346,5.5762 4.4017,5.483 4.4336,5.3769 4.4471,5.3227 4.4538,5.268 4.4538,5.2125 4.4538,5.1534 4.4454,5.0938 4.4285,5.0334 Z M 3.918,5.0432 C 3.9349,5.1085 3.9433,5.1738 3.9433,5.2395 V 5.2984 C 3.9366,5.3767 3.913,5.4496 3.8725,5.5167 3.8372,5.5771 3.7904,5.6245 3.7323,5.6589 3.6742,5.6932 3.6064,5.7104 3.5288,5.7106 H 2.8616 C 2.7723,5.7104 2.721,5.7047 2.7075,5.6934 2.6872,5.6768 2.6679,5.6294 2.6494,5.5511 L 2.3361,4.3194 H 3.026 C 3.122,4.3192 3.2172,4.3379 3.3115,4.3756 3.406,4.4132 3.496,4.4664 3.5819,4.5353 3.7605,4.6791 3.8726,4.8484 3.918,5.0432 Z M 3.6072,3.3821 C 3.6308,3.4654 3.6426,3.548 3.6426,3.6299 V 3.6814 C 3.6359,3.7728 3.6115,3.8572 3.5693,3.9341 3.5322,4.001 3.4821,4.0554 3.4189,4.0972 3.3557,4.1389 3.2821,4.1597 3.1977,4.1599 H 2.2905 L 1.9392,2.7859 C 1.9257,2.73 1.9189,2.69 1.9189,2.6656 1.9189,2.6524 1.9199,2.6451 1.9216,2.6435 1.9249,2.6385 1.9688,2.6353 2.053,2.6337 h 0.6747 c 0.0926,-1e-4 0.1862,0.0198 0.2805,0.06 0.0945,0.04 0.1813,0.0928 0.2604,0.1584 0.0877,0.0735 0.1596,0.156 0.2161,0.2477 0.0564,0.0915 0.0973,0.1857 0.1225,0.2823 z" /></g></g></g><g
                 transform="matrix(9.6697,-1.507e-6,0,2.1886,67.202,1135.26)"
                 id="g74"><g
                   transform="scale(2.0683,9.1382)"
                   id="g76"><g
                     clip-path="url(#clipPath82)"
                     id="g78"><path
                       id="path84"
                       style="fill:#000000;fill-opacity:1;fill-rule:evenodd;stroke:none"
                       d="M 3.2049,3.176 C 3.1848,3.0956 3.1621,3.0097 3.1368,2.9182 3.1115,2.8265 3.0778,2.7415 3.0356,2.663 2.9936,2.5845 2.9405,2.5166 2.8764,2.4594 2.8125,2.4022 2.7324,2.3736 2.6363,2.3736 2.5084,2.3736 2.406,2.4091 2.3293,2.4802 2.2526,2.5514 2.2084,2.6238 2.1966,2.6975 2.1393,2.6319 2.0539,2.5615 1.9401,2.4864 1.8264,2.4112 1.7064,2.3736 1.58,2.3736 1.4469,2.3736 1.3353,2.4071 1.2451,2.4741 1.1549,2.5411 1.0847,2.6255 1.0341,2.727 0.97351,2.8478 0.94146,2.9779 0.93809,3.1171 v 0.0368 c 0,0.1291 0.01778,0.2582 0.05306,0.3877 C 1.0316,3.6837 1.0881,3.8243 1.1604,3.9634 1.233,4.1024 1.329,4.2316 1.4486,4.3513 1.5464,4.4493 1.6581,4.5318 1.7835,4.5989 1.9089,4.6659 2.0365,4.6995 2.1663,4.6997 2.2791,4.6995 2.371,4.6696 2.4417,4.61 2.5125,4.5502 2.5572,4.5008 2.5757,4.4617 L 2.5656,4.42 C 2.5774,4.4804 2.6056,4.5261 2.6502,4.5572 2.695,4.5882 2.7401,4.6038 2.7855,4.604 2.8376,4.6038 2.8815,4.5883 2.9169,4.5574 2.9389,4.5327 2.9507,4.5 2.9522,4.4592 2.9522,4.4443 2.9505,4.4279 2.9471,4.4101 L 2.5832,2.992 C 2.5664,2.9248 2.5546,2.8618 2.5478,2.803 2.5446,2.7734 2.5429,2.7464 2.5429,2.7221 2.5429,2.7006 2.5446,2.6777 2.5478,2.6534 2.553,2.614 2.5648,2.5845 2.5832,2.5649 2.6018,2.5452 2.6279,2.5354 2.6616,2.5356 2.697,2.5354 2.7303,2.5502 2.7614,2.5796 2.7927,2.609 2.8214,2.6527 2.8475,2.7109 2.8735,2.7688 2.8984,2.8385 2.922,2.9194 2.9456,3.0004 2.97,3.0883 2.9951,3.1833 3.0053,3.2257 3.0339,3.247 3.0812,3.2471 H 3.1393 C 3.1831,3.247 3.2049,3.229 3.2049,3.1932 Z M 2.4822,4.0789 C 2.4754,4.1082 2.4696,4.1389 2.4645,4.1708 2.4595,4.2027 2.4518,4.2341 2.4417,4.2654 2.4149,4.3421 2.3765,4.4063 2.3268,4.4578 2.2771,4.5094 2.2143,4.5351 2.1385,4.5353 2.0678,4.5351 1.9979,4.5097 1.9287,4.4591 1.8597,4.4083 1.7965,4.343 1.7392,4.2629 1.6584,4.1499 1.5978,4.0324 1.5573,3.9107 1.5168,3.7888 1.4797,3.6616 1.446,3.5293 1.4124,3.3983 1.3846,3.2715 1.3626,3.149 1.3492,3.0867 1.3425,3.0278 1.3425,2.9723 c 0,-0.059 0.0067,-0.1162 0.0201,-0.1717 0.0153,-0.077 0.0426,-0.1405 0.0822,-0.1903 0.0395,-0.05 0.0947,-0.0749 0.1654,-0.0747 0.0776,-2e-4 0.1555,0.0268 0.2339,0.0808 0.0783,0.054 0.1512,0.1202 0.2185,0.1989 0.027,0.0325 0.0528,0.0639 0.0771,0.0943 0.0246,0.0302 0.046,0.0626 0.0644,0.0971 z" /><path
                       id="path86"
                       style="fill:#000000;fill-opacity:1;fill-rule:evenodd;stroke:none"
                       d="M 5.7318,4.2899 C 5.7134,4.2162 5.6758,4.161 5.6194,4.1241 5.563,4.0873 5.5062,4.0689 5.4489,4.0691 5.39,4.0689 5.3411,4.0878 5.3023,4.1255 5.2737,4.1531 5.2586,4.1892 5.2567,4.2335 c 0,0.0178 0.0034,0.0408 0.0101,0.0687 0.0187,0.0619 0.0474,0.109 0.0861,0.1409 C 5.3917,4.475 5.4187,4.4934 5.4337,4.4985 5.4018,4.5229 5.336,4.5351 5.2366,4.5353 5.1491,4.5351 5.0707,4.4897 5.0017,4.399 4.9327,4.3082 4.8812,4.199 4.8474,4.0715 L 4.6149,3.1735 C 4.5915,3.0834 4.5738,2.9975 4.5619,2.9159 4.5553,2.888 4.5519,2.8635 4.5519,2.8423 4.5519,2.7914 4.5603,2.7432 4.5771,2.6975 4.5939,2.6483 4.6192,2.609 4.653,2.5796 4.6867,2.5502 4.7296,2.5354 4.7818,2.5356 4.8493,2.5354 4.9141,2.5529 4.9764,2.5882 5.0386,2.6233 5.096,2.6707 5.1481,2.7305 5.2004,2.7902 5.2467,2.8596 5.2872,2.9391 5.3277,3.0183 5.3596,3.0998 5.3831,3.1833 5.3932,3.2257 5.4219,3.247 5.4691,3.2471 h 0.058 C 5.5709,3.247 5.5929,3.2306 5.5929,3.1981 5.5929,3.1881 5.5904,3.179 5.5852,3.1711 5.5617,3.0728 5.5234,2.9759 5.4703,2.8802 5.4173,2.7845 5.3555,2.6998 5.2846,2.6262 5.2139,2.5526 5.1336,2.492 5.0434,2.4448 4.9532,2.3973 4.8568,2.3736 4.754,2.3736 4.6496,2.3736 4.5594,2.396 4.4837,2.4411 4.4079,2.4859 4.3464,2.5445 4.2992,2.6166 4.2842,2.6343 4.2724,2.6527 4.2639,2.6716 4.2555,2.6903 4.2529,2.6932 4.2563,2.6804 4.2158,2.6132 4.1518,2.5452 4.0643,2.4765 3.9767,2.4078 3.8756,2.3736 3.7609,2.3736 3.697,2.3736 3.6338,2.3818 3.5715,2.3982 3.5093,2.4144 3.4548,2.4397 3.4085,2.4741 3.3622,2.5084 3.3273,2.5502 3.3036,2.5994 3.292,2.6287 3.2862,2.6606 3.286,2.6951 3.2862,2.7195 3.2895,2.7481 3.2961,2.7809 3.3147,2.8544 3.3526,2.9096 3.4098,2.9464 3.4671,2.9832 3.5243,3.0016 3.5817,3.0018 3.6405,3.0016 3.6912,2.9828 3.7332,2.9453 3.7618,2.9174 3.7761,2.8814 3.7761,2.8374 3.7761,2.8144 3.7727,2.7914 3.766,2.7687 3.751,2.7113 3.7235,2.665 3.6839,2.6299 3.6444,2.5946 3.6162,2.5755 3.5993,2.5724 3.6313,2.546 3.6962,2.5337 3.7939,2.5356 3.8815,2.5354 3.9606,2.5811 4.0313,2.6728 4.1021,2.7644 4.1535,2.874 4.1854,3.0018 l 0.2351,0.9029 c 0.0236,0.085 0.042,0.1684 0.0555,0.2503 0.0034,0.026 0.0051,0.0506 0.0051,0.0736 0,0.0506 -0.0076,0.098 -0.0227,0.1423 C 4.4415,4.4198 4.4154,4.4594 4.38,4.4897 4.3447,4.5199 4.3009,4.5351 4.2486,4.5353 4.1813,4.5351 4.1161,4.5175 4.0529,4.4824 3.9897,4.4471 3.9321,4.4002 3.8798,4.3413 3.8276,4.2824 3.7813,4.214 3.7408,4.1364 3.7004,4.0587 3.6709,3.9765 3.6524,3.89 3.634,3.8457 3.6027,3.8228 3.5588,3.8213 H 3.5033 C 3.4628,3.8211 3.4426,3.8415 3.4426,3.8826 V 3.8998 C 3.4679,4.001 3.5067,4.0996 3.5588,4.1953 3.6111,4.291 3.6735,4.3756 3.7459,4.4493 3.8183,4.5229 3.8993,4.583 3.9885,4.6296 4.0778,4.6762 4.1747,4.6995 4.2789,4.6997 4.3802,4.6995 4.4694,4.6774 4.5469,4.6333 4.6243,4.5891 4.6875,4.5302 4.7362,4.4568 4.7464,4.4387 4.7557,4.4193 4.7641,4.399 4.7726,4.3784 4.775,4.3732 4.7717,4.3832 4.8138,4.4549 4.8787,4.5256 4.9663,4.5952 5.0538,4.6647 5.154,4.6995 5.2668,4.6997 5.3309,4.6995 5.3946,4.6917 5.4578,4.6762 5.5209,4.6606 5.5755,4.6357 5.6218,4.6014 5.6682,4.567 5.7023,4.5245 5.7243,4.4739 5.7361,4.4443 5.7419,4.4108 5.7419,4.3733 5.7419,4.3487 5.7385,4.3209 5.7318,4.2899 Z" /><path
                       id="path88"
                       style="fill:none;stroke:#000000;stroke-width:0.20100001;stroke-linecap:round;stroke-linejoin:round;stroke-miterlimit:10;stroke-dasharray:none;stroke-opacity:1"
                       d="M 7.1871,3.9395 H 10.705" /><path
                       id="path90"
                       style="fill:none;stroke:#000000;stroke-width:0.20100001;stroke-linecap:round;stroke-linejoin:round;stroke-miterlimit:10;stroke-dasharray:none;stroke-opacity:1"
                       d="M 8.9459,5.6982 V 2.1807" /><path
                       id="path92"
                       style="fill:#000000;fill-opacity:1;fill-rule:evenodd;stroke:none"
                       d="M 13.939,3.5268 C 13.899,3.3844 13.842,3.2436 13.769,3.1047 13.695,2.9656 13.6,2.8372 13.482,2.7196 13.384,2.6213 13.273,2.5391 13.149,2.4729 13.026,2.4066 12.897,2.3736 12.764,2.3736 c -0.128,0 -0.235,0.0342 -0.321,0.1029 -0.086,0.0687 -0.151,0.1539 -0.197,0.2554 -0.054,0.1208 -0.082,0.2509 -0.086,0.3901 v 0.0319 c 0,0.1291 0.017,0.2575 0.051,0.3852 l 0.508,1.9752 c 0.013,0.0538 0.022,0.0947 0.025,0.1227 v 0.0073 c 0,0.0146 -0.003,0.0252 -0.01,0.0319 -0.02,0.0129 -0.058,0.0219 -0.114,0.0268 -0.055,0.005 -0.119,0.0074 -0.192,0.0076 -0.025,-2e-4 -0.044,0.0079 -0.055,0.0245 -0.011,0.0097 -0.016,0.0219 -0.016,0.0368 0,0.0097 0.003,0.0187 0.008,0.027 l 0.008,0.0393 c 0.013,0.0391 0.043,0.0636 0.091,0.0736 l 0.669,0.0539 h 0.01 c 0.02,-10e-5 0.037,-0.0067 0.051,-0.0196 0.006,-0.0132 0.01,-0.0264 0.01,-0.0392 0,-0.01 -0.003,-0.0191 -0.008,-0.027 L 12.832,4.4666 c 0.037,0.0374 0.106,0.0857 0.205,0.1446 0.099,0.0589 0.204,0.0883 0.313,0.0885 0.133,-2e-4 0.246,-0.0345 0.338,-0.1032 C 13.78,4.5278 13.85,4.4436 13.899,4.3439 13.956,4.2228 13.986,4.0918 13.99,3.9513 V 3.917 c 0,-0.1261 -0.017,-0.2561 -0.051,-0.3902 z M 13.573,4.2727 C 13.558,4.3511 13.529,4.4144 13.487,4.4627 13.445,4.5109 13.39,4.5351 13.323,4.5353 13.242,4.5351 13.163,4.5089 13.085,4.4566 13.008,4.4042 12.935,4.3381 12.868,4.258 12.816,4.1909 12.77,4.1278 12.731,4.0691 L 12.592,3.5293 C 12.559,3.3983 12.533,3.2723 12.517,3.1514 12.51,3.1005 12.506,3.0524 12.506,3.0067 c 0,-0.0721 0.009,-0.1408 0.026,-0.2061 0.018,-0.0755 0.049,-0.1385 0.092,-0.1891 0.043,-0.0508 0.1,-0.0761 0.17,-0.0759 0.071,-2e-4 0.142,0.0259 0.211,0.0784 0.07,0.0522 0.133,0.1177 0.189,0.1964 0.081,0.1095 0.142,0.2259 0.183,0.3495 0.041,0.1234 0.079,0.2498 0.112,0.3792 0.034,0.134 0.064,0.2632 0.089,0.3877 0.01,0.0587 0.015,0.1159 0.015,0.1717 0,0.0588 -0.007,0.1169 -0.02,0.1742 z" /><path
                       id="path94"
                       style="fill:#000000;fill-opacity:1;fill-rule:evenodd;stroke:none"
                       d="M 16.082,2.4497 C 16.047,2.3123 15.991,2.181 15.916,2.0559 15.84,1.9308 15.75,1.8194 15.648,1.7222 15.545,1.6248 15.43,1.5459 15.302,1.4854 15.173,1.4249 15.04,1.3947 14.902,1.3947 c -0.082,0 -0.158,0.015 -0.227,0.0453 -0.069,0.0303 -0.126,0.0712 -0.169,0.1227 -0.044,0.0516 -0.074,0.1124 -0.089,0.1828 -0.007,0.031 -0.01,0.0629 -0.01,0.0957 0,0.0425 0.005,0.0859 0.015,0.1301 0.019,0.0736 0.057,0.1288 0.114,0.1656 0.057,0.0368 0.114,0.0552 0.169,0.0552 0.059,0 0.109,-0.0189 0.149,-0.0565 0.029,-0.0279 0.043,-0.0637 0.043,-0.1079 0,-0.0181 -0.003,-0.0402 -0.01,-0.0663 C 14.869,1.8878 14.831,1.8326 14.773,1.7958 14.716,1.759 14.671,1.7406 14.637,1.7406 c 0.01,-0.0441 0.042,-0.0856 0.095,-0.1239 0.053,-0.0385 0.121,-0.0576 0.203,-0.0576 0.091,0 0.176,0.0245 0.255,0.0736 0.079,0.049 0.152,0.1148 0.218,0.1975 0.065,0.0825 0.123,0.1782 0.173,0.287 0.049,0.1088 0.089,0.2229 0.12,0.3423 l 0.015,0.0589 C 15.691,2.4954 15.638,2.4655 15.557,2.4289 15.476,2.3921 15.387,2.3736 15.291,2.3736 c -0.114,0 -0.216,0.0212 -0.307,0.0638 -0.09,0.0424 -0.161,0.1078 -0.213,0.1963 -0.051,0.0948 -0.075,0.1994 -0.073,0.3141 v 0.0196 c 0.003,0.1193 0.018,0.2379 0.045,0.3558 0.027,0.1127 0.066,0.2369 0.118,0.3728 0.051,0.1357 0.1,0.2674 0.147,0.3952 0.051,0.1355 0.076,0.2469 0.076,0.3337 0,0.0734 -0.031,0.1102 -0.093,0.1104 C 14.933,4.5351 14.882,4.5187 14.835,4.4861 14.789,4.4532 14.747,4.4078 14.709,4.3499 14.671,4.2918 14.637,4.2231 14.607,4.1438 14.576,4.0643 14.551,3.9798 14.531,3.89 14.512,3.8457 14.481,3.8228 14.437,3.8213 h -0.058 c -0.04,-2e-4 -0.06,0.0202 -0.06,0.0613 v 0.0172 c 0.023,0.0899 0.054,0.1817 0.093,0.2759 0.039,0.094 0.088,0.1794 0.147,0.2564 0.059,0.0768 0.126,0.1406 0.202,0.1914 0.076,0.0506 0.162,0.076 0.26,0.0762 0.084,-2e-4 0.156,-0.0183 0.216,-0.0542 0.06,-0.036 0.105,-0.0838 0.136,-0.1435 0.032,-0.0598 0.049,-0.1271 0.052,-0.2023 V 4.2826 C 15.425,4.212 15.411,4.1393 15.382,4.0642 15.334,3.9364 15.285,3.8059 15.237,3.6727 15.189,3.5393 15.152,3.4195 15.125,3.3132 15.098,3.2068 15.079,3.1015 15.069,2.9969 15.062,2.969 15.058,2.9386 15.056,2.9061 c 0,-0.064 0.011,-0.127 0.033,-0.1889 0.015,-0.0559 0.043,-0.1 0.084,-0.1327 0.04,-0.0328 0.088,-0.0491 0.144,-0.0489 0.107,-2e-4 0.202,0.0317 0.283,0.0955 0.081,0.0638 0.151,0.1472 0.212,0.2504 l 0.407,1.5826 c 0.015,0.0604 0.046,0.1049 0.092,0.1336 0.046,0.0285 0.093,0.0429 0.14,0.0431 0.049,-2e-4 0.089,-0.0149 0.121,-0.0442 0.022,-0.0214 0.033,-0.05 0.033,-0.0859 0,-0.018 -0.001,-0.0369 -0.005,-0.0564 z" /><path
                       id="path96"
                       style="fill:none;stroke:#000000;stroke-width:0.20100001;stroke-linecap:round;stroke-linejoin:round;stroke-miterlimit:10;stroke-dasharray:none;stroke-opacity:1"
                       d="m 18.221,3.9395 h 3.518" /><path
                       id="path98"
                       style="fill:none;stroke:#000000;stroke-width:0.20100001;stroke-linecap:round;stroke-linejoin:round;stroke-miterlimit:10;stroke-dasharray:none;stroke-opacity:1"
                       d="M 19.98,5.6982 V 2.1807" /><path
                       id="path100"
                       style="fill:#000000;fill-opacity:1;fill-rule:evenodd;stroke:none"
                       d="m 25.09,3.0288 c 0.012,-0.0117 0.018,-0.024 0.018,-0.0368 0,-0.0149 -0.007,-0.0313 -0.02,-0.0491 C 24.955,2.7579 24.785,2.6167 24.579,2.5195 24.372,2.4223 24.166,2.3736 23.958,2.3736 c -0.146,0 -0.273,0.0323 -0.381,0.0968 -0.108,0.0646 -0.193,0.1492 -0.255,0.2541 -0.071,0.1176 -0.111,0.246 -0.122,0.3852 -0.003,0.0342 -0.005,0.0686 -0.005,0.1031 0,0.1046 0.014,0.2133 0.041,0.3263 0.04,0.1503 0.102,0.2951 0.186,0.4342 0.083,0.1389 0.188,0.2666 0.314,0.3829 0.116,0.1012 0.245,0.1838 0.385,0.2476 0.141,0.0638 0.282,0.0957 0.424,0.0959 0.086,-2e-4 0.166,-0.0134 0.241,-0.0394 0.075,-0.0263 0.139,-0.0643 0.192,-0.1141 0.053,-0.05 0.091,-0.1084 0.115,-0.1753 0.007,-0.0362 0.01,-0.0721 0.01,-0.108 0,-0.0394 -0.005,-0.0811 -0.015,-0.1251 C 25.069,4.064 25.031,4.0079 24.974,3.9696 24.917,3.9311 24.86,3.9119 24.802,3.9121 c -0.06,-2e-4 -0.109,0.0211 -0.146,0.0638 -0.029,0.0276 -0.043,0.0636 -0.043,0.1079 0,0.0178 0.003,0.0399 0.01,0.0663 0.018,0.0717 0.055,0.1253 0.11,0.1605 C 24.788,4.3457 24.83,4.3641 24.86,4.366 24.844,4.4068 24.804,4.4451 24.74,4.4811 24.677,4.517 24.602,4.5351 24.514,4.5353 24.43,4.5351 24.344,4.5094 24.255,4.4578 24.167,4.4063 24.089,4.3396 24.022,4.258 23.931,4.1516 23.861,4.0366 23.813,3.9131 23.765,3.7895 23.724,3.6616 23.691,3.5293 23.657,3.3983 23.631,3.2715 23.612,3.149 23.605,3.1096 23.602,3.0728 23.602,3.0386 c 0,-0.0804 0.014,-0.1572 0.041,-0.2307 0.025,-0.0819 0.067,-0.1478 0.127,-0.1976 0.06,-0.05 0.132,-0.0749 0.216,-0.0747 0.179,-2e-4 0.353,0.0455 0.523,0.1372 0.171,0.0916 0.311,0.216 0.422,0.3731 0.01,0.0178 0.03,0.0318 0.058,0.0418 h 0.021 c 0.016,-2e-4 0.031,-0.0059 0.042,-0.0172 z" /><path
                       id="path102"
                       style="fill:none;stroke:#000000;stroke-width:0.20100001;stroke-linecap:round;stroke-linejoin:round;stroke-miterlimit:10;stroke-dasharray:none;stroke-opacity:1"
                       d="m 26.566,4.4671 h 3.518" /><path
                       id="path104"
                       style="fill:none;stroke:#000000;stroke-width:0.20100001;stroke-linecap:round;stroke-linejoin:round;stroke-miterlimit:10;stroke-dasharray:none;stroke-opacity:1"
                       d="m 26.566,3.4119 h 3.518" /><path
                       id="path106"
                       style="fill:#000000;fill-opacity:1;fill-rule:evenodd;stroke:none"
                       d="m 33.85,4.1239 c 0,-0.231 -0.016,-0.4606 -0.048,-0.689 C 33.77,3.2064 33.69,2.992 33.563,2.7918 33.472,2.6457 33.351,2.5336 33.199,2.4552 33.047,2.3766 32.882,2.3373 32.703,2.3373 c -0.171,0 -0.334,0.0393 -0.486,0.1179 -0.153,0.0784 -0.275,0.1905 -0.366,0.3366 -0.127,0.2002 -0.206,0.4146 -0.239,0.6431 -0.032,0.2284 -0.048,0.458 -0.048,0.689 0,0.2339 0.016,0.4675 0.048,0.7008 0.033,0.2332 0.112,0.4516 0.239,0.6554 0.091,0.1472 0.213,0.2619 0.364,0.3437 0.152,0.0817 0.315,0.1226 0.488,0.1228 0.177,-2e-4 0.342,-0.0411 0.494,-0.1228 C 33.35,5.742 33.472,5.6273 33.563,5.4801 33.69,5.2763 33.77,5.0579 33.802,4.8247 33.834,4.5914 33.85,4.3578 33.85,4.1239 Z m -0.49,0.0842 c 0,0.1008 -10e-4,0.2074 -0.003,0.3196 -0.002,0.1121 -0.006,0.222 -0.012,0.3294 -0.007,0.1073 -0.019,0.2088 -0.036,0.3042 -0.018,0.0953 -0.039,0.1768 -0.063,0.2442 -0.05,0.1088 -0.122,0.1983 -0.218,0.268 C 32.932,5.7432 32.824,5.7781 32.703,5.7782 32.586,5.7781 32.48,5.7428 32.385,5.6723 32.29,5.6017 32.218,5.5128 32.168,5.4055 32.144,5.3381 32.123,5.2566 32.105,5.1613 32.088,5.0659 32.076,4.9644 32.069,4.8571 32.063,4.7497 32.059,4.6398 32.057,4.5277 32.055,4.4155 32.054,4.3089 32.054,4.2081 c 0,-0.1124 10e-4,-0.2307 0.003,-0.3549 0.002,-0.1242 0.006,-0.2445 0.012,-0.3606 0.007,-0.1164 0.019,-0.2265 0.036,-0.3307 0.018,-0.1043 0.039,-0.1916 0.063,-0.2619 0.047,-0.1172 0.118,-0.2134 0.215,-0.2887 0.096,-0.0754 0.203,-0.113 0.32,-0.1129 0.123,-1e-4 0.232,0.0375 0.328,0.1129 0.097,0.0753 0.169,0.1715 0.215,0.2887 0.024,0.0703 0.045,0.1576 0.063,0.2619 0.017,0.1042 0.029,0.2143 0.036,0.3307 0.006,0.1161 0.01,0.2364 0.012,0.3606 0.002,0.1242 0.003,0.2425 0.003,0.3549 z" /></g></g></g></g></g></g></g></g></g></svg>